<svg width="100" height="100" xmlns="http://www.w3.org/2000/svg">
 <title>wifi10</title>

 <g>
  <title>background</title>
  <rect fill="none" id="canvas_background" height="102" width="102" y="-1" x="-1"/>
 </g>
 <g>
  <title>Layer 1</title>
  <path fill="#ffffff" id="svg_2" d="m22.31,54.15l-7.56,-7c16.32,-18.33 51.32,-20.43 70.78,-0.12l-7.73,7c-7.95,-7.03 -17.13,-10.8 -27.6,-10.8s-19.74,3.65 -27.89,10.92z"/>
  <path fill="#ffffff" id="svg_3" d="m64.24,67.94c-10.59,-7 -17.91,-7 -28.13,0.05l-7.71,-7.11c12.72,-11.88 30.87,-11.88 43.39,-0.04l-7.55,7.1z"/>
  <path fill="#ffffff" id="svg_4" d="m49.82,70.36a8.56,8.56 0 0 1 8.84,8.43a8.65,8.65 0 0 1 -8.52,8.79a8.84,8.84 0 0 1 -8.89,-8.47a8.7,8.7 0 0 1 8.57,-8.75z"/>
 </g>
</svg>